<svg xmlns="http://www.w3.org/2000/svg">

<symbol id="music" viewBox="0 0 32 32">
  <path d="M30 0h2v23c0 2.761-3.134 5-7 5s-7-2.239-7-5c0-2.761 3.134-5 7-5 1.959 0 3.729 0.575 5 1.501v-11.501l-16 3.556v15.444c0 2.761-3.134 5-7 5s-7-2.239-7-5c0-2.761 3.134-5 7-5 1.959 0 3.729 0.575 5 1.501v-19.501l18-4z"></path>
</symbol>

<symbol id="download" viewBox="0 0 32 32">
  <path d="M23 14l-8 8-8-8h5v-12h6v12zM15 22h-15v8h30v-8h-15zM28 26h-4v-2h4v2z"></path>
</symbol>

<symbol id="play" viewBox="0 0 32 32">
  <path d="M6 4l20 12-20 12z"></path>
</symbol>

<symbol id="pause" viewBox="0 0 32 32">
  <path d="M4 4h10v24h-10zM18 4h10v24h-10z"></path>
</symbol>

</svg>